<svg version="1.1" xmlns="http://www.w3.org/2000/svg" viewBox="0 0 705.908332824707 1299.375" width="705.908332824707" height="1299.375">
  <!-- svg-source:excalidraw -->
  
  <defs>
    <style class="style-fonts">
      @font-face {
        font-family: "Virgil";
        src: url("https://excalidraw.com/Virgil.woff2");
      }
      @font-face {
        font-family: "Cascadia";
        src: url("https://excalidraw.com/Cascadia.woff2");
      }
    </style>
  </defs>
  <rect x="0" y="0" width="705.908332824707" height="1299.375" fill="#ffffff"></rect><g stroke-linecap="round" transform="translate(33.75 10) rotate(0 97 39)"><path d="M19.5 0 M19.5 0 C56.8 -1.23, 90.04 -1.27, 174.5 0 M19.5 0 C70.4 -1.04, 122.34 -0.51, 174.5 0 M174.5 0 C187.66 -0.42, 194.6 7.52, 194 19.5 M174.5 0 C188.03 -0.84, 193.81 8.62, 194 19.5 M194 19.5 C193.27 29.37, 193.35 42.87, 194 58.5 M194 19.5 C193.98 31.65, 193.65 41.92, 194 58.5 M194 58.5 C192.37 71.46, 186.94 78.35, 174.5 78 M194 58.5 C195.52 69.89, 186.71 78.42, 174.5 78 M174.5 78 C127.72 79.35, 78.28 77.62, 19.5 78 M174.5 78 C123.69 78.82, 71.96 78.65, 19.5 78 M19.5 78 C7.16 77.39, 0.4 73.43, 0 58.5 M19.5 78 C6.4 76, -0.23 71.55, 0 58.5 M0 58.5 C0.07 50.91, 0.14 40, 0 19.5 M0 58.5 C0.74 49.31, -0.18 38.88, 0 19.5 M0 19.5 C1.8 5.27, 6.75 -0.55, 19.5 0 M0 19.5 C-1.86 5.76, 6.75 0.05, 19.5 0" stroke="#e67700" stroke-width="1" fill="none"></path></g><g transform="translate(79.9749984741211 22.84928953822353) rotate(0 52.724998474121094 24)"><text x="52.724998474121094" y="0" font-family="Cascadia, Segoe UI Emoji" font-size="20px" fill="#e67700" text-anchor="middle" style="white-space: pre;" direction="ltr" dominant-baseline="text-before-edge">c source </text><text x="52.724998474121094" y="24" font-family="Cascadia, Segoe UI Emoji" font-size="20px" fill="#e67700" text-anchor="middle" style="white-space: pre;" direction="ltr" dominant-baseline="text-before-edge">code</text></g><g stroke-linecap="round"><g transform="translate(125.73916091269905 88.35384615384612) rotate(0 1.2968282579405468 49.02995823554886)"><path d="M0.88 -0.62 C0.92 15.98, 0.29 82.18, 0.36 98.68 M-0.11 1.67 C0.3 18.01, 2.58 81.2, 2.71 96.97" stroke="#e67700" stroke-width="1" fill="none"></path></g><g transform="translate(125.73916091269905 88.35384615384612) rotate(0 1.2968282579405468 49.02995823554886)"><path d="M-9.26 67.89 C-3.74 78.06, -0.86 85.12, 4.68 95.32 M-7.91 69.83 C-4.64 78.77, 0.46 90.01, 2.85 97.69" stroke="#e67700" stroke-width="1" fill="none"></path></g><g transform="translate(125.73916091269905 88.35384615384612) rotate(0 1.2968282579405468 49.02995823554886)"><path d="M11.26 67.4 C10.38 77.87, 6.86 85.08, 4.68 95.32 M12.61 69.34 C8.01 78.43, 5.25 89.85, 2.85 97.69" stroke="#e67700" stroke-width="1" fill="none"></path></g></g><mask></mask><g stroke-linecap="round" transform="translate(29.75 191) rotate(0 97 37)"><path d="M18.5 0 M18.5 0 C50.8 -0.52, 86.43 1.47, 175.5 0 M18.5 0 C76.13 1.65, 135.34 0.84, 175.5 0 M175.5 0 C186.39 0.6, 193.78 6.38, 194 18.5 M175.5 0 C186.01 2.14, 192.84 7.22, 194 18.5 M194 18.5 C194.69 26.9, 194.66 34.07, 194 55.5 M194 18.5 C193.88 27.25, 195.05 35.26, 194 55.5 M194 55.5 C193.72 69.83, 186.59 74.78, 175.5 74 M194 55.5 C195.63 68.53, 190.01 74.55, 175.5 74 M175.5 74 C116.9 71.26, 62.63 73.73, 18.5 74 M175.5 74 C135.11 74.28, 94.39 73.07, 18.5 74 M18.5 74 C4.59 73.79, -0.42 68.77, 0 55.5 M18.5 74 C5.74 75.72, 0.64 67.84, 0 55.5 M0 55.5 C0.78 39.75, 1.2 26.35, 0 18.5 M0 55.5 C-0.88 41.16, 0.95 27.85, 0 18.5 M0 18.5 C-1.14 4.38, 5.12 -0.81, 18.5 0 M0 18.5 C1.89 6.13, 4.82 -1.76, 18.5 0" stroke="#e67700" stroke-width="1" fill="none"></path></g><g transform="translate(51.75 214.60000000000002) rotate(0 76.15833282470703 12)"><text x="76.15833282470703" y="0" font-family="Cascadia, Segoe UI Emoji" font-size="20px" fill="#e67700" text-anchor="middle" style="white-space: pre;" direction="ltr" dominant-baseline="text-before-edge">preprocessing</text></g><g stroke-linecap="round"><g transform="translate(129.7611224826219 267) rotate(0 0.479425519324991 54.625387416267756)"><path d="M-0.82 0.16 C-0.67 18.11, 1.33 90.62, 1.78 108.69 M0.94 -0.81 C0.86 17.24, 0.71 91.65, 0.73 110.06" stroke="#e67700" stroke-width="1" fill="none"></path></g><g transform="translate(129.7611224826219 267) rotate(0 0.479425519324991 54.625387416267756)"><path d="M-9.25 81.54 C-6.02 92.22, -2.45 101.85, 0.89 110.64 M-8.56 82.04 C-7.41 87.41, -5.03 93.36, -0.11 110.37" stroke="#e67700" stroke-width="1" fill="none"></path></g><g transform="translate(129.7611224826219 267) rotate(0 0.479425519324991 54.625387416267756)"><path d="M11.27 81.55 C6.92 92.09, 2.91 101.71, 0.89 110.64 M11.96 82.05 C8.66 87.5, 6.58 93.44, -0.11 110.37" stroke="#e67700" stroke-width="1" fill="none"></path></g></g><mask></mask><g transform="translate(149.75 284) rotate(0 117.16666412353516 24)"><text x="117.16666412353516" y="0" font-family="Cascadia, Segoe UI Emoji" font-size="20px" fill="#e67700" text-anchor="middle" style="white-space: pre;" direction="ltr" dominant-baseline="text-before-edge">c source code after </text><text x="117.16666412353516" y="24" font-family="Cascadia, Segoe UI Emoji" font-size="20px" fill="#e67700" text-anchor="middle" style="white-space: pre;" direction="ltr" dominant-baseline="text-before-edge">preprocessing</text></g><g stroke-linecap="round" transform="translate(31.75 384) rotate(0 97 37)"><path d="M18.5 0 M18.5 0 C72.63 -0.79, 129.24 -0.19, 175.5 0 M18.5 0 C73.15 0.97, 128.23 0.53, 175.5 0 M175.5 0 C188.56 1.81, 192.18 5.8, 194 18.5 M175.5 0 C186.04 2.29, 194.15 4.63, 194 18.5 M194 18.5 C193.33 32.33, 195.81 46.73, 194 55.5 M194 18.5 C193.73 33.36, 194.61 47.29, 194 55.5 M194 55.5 C195.1 66.48, 188.82 72.36, 175.5 74 M194 55.5 C192.19 66.39, 187.48 75.87, 175.5 74 M175.5 74 C143.09 74.33, 112.48 73.27, 18.5 74 M175.5 74 C132.22 72.62, 89.87 72.52, 18.5 74 M18.5 74 C6.13 73.63, -1.3 69.18, 0 55.5 M18.5 74 C7.48 72.9, 1.2 68.67, 0 55.5 M0 55.5 C1.47 46.92, -1.16 37.74, 0 18.5 M0 55.5 C-0.1 45.54, 0.59 36.48, 0 18.5 M0 18.5 C-0.72 5.86, 5.78 -0.58, 18.5 0 M0 18.5 C-0.26 7.31, 7.24 0.85, 18.5 0" stroke="#e67700" stroke-width="1" fill="none"></path></g><g transform="translate(78.5 409.25) rotate(0 46.86666488647461 12)"><text x="46.86666488647461" y="0" font-family="Cascadia, Segoe UI Emoji" font-size="20px" fill="#e67700" text-anchor="middle" style="white-space: pre;" direction="ltr" dominant-baseline="text-before-edge">compiler</text></g><g stroke-linecap="round"><g transform="translate(128.75 463) rotate(0 -0.3268322357732245 71.1672743124189)"><path d="M0.25 -0.19 C0.28 23.85, 0.56 119.74, 0.39 143.67 M-1.08 -1.33 C-1.18 22.41, -0.82 118.13, -0.35 141.9" stroke="#e67700" stroke-width="1" fill="none"></path></g><g transform="translate(128.75 463) rotate(0 -0.3268322357732245 71.1672743124189)"><path d="M-11.22 114.46 C-6.61 121.32, -3.78 131.9, -1.9 140.78 M-10.09 114.3 C-6.78 124.18, -3.49 132.14, -0.85 141.21" stroke="#e67700" stroke-width="1" fill="none"></path></g><g transform="translate(128.75 463) rotate(0 -0.3268322357732245 71.1672743124189)"><path d="M9.3 114.25 C7.47 121.22, 3.86 131.87, -1.9 140.78 M10.43 114.09 C6.76 123.95, 3.06 131.98, -0.85 141.21" stroke="#e67700" stroke-width="1" fill="none"></path></g></g><mask></mask><g transform="translate(166 511.25) rotate(0 76.15833282470703 12)"><text x="76.15833282470703" y="0" font-family="Cascadia, Segoe UI Emoji" font-size="20px" fill="#e67700" text-anchor="middle" style="white-space: pre;" direction="ltr" dominant-baseline="text-before-edge">assembly code</text></g><g stroke-linecap="round" transform="translate(27.75 614) rotate(0 101 30)"><path d="M15 0 M15 0 C52.41 0.61, 91.52 0.5, 187 0 M15 0 C66.01 -1.46, 117.73 -1.3, 187 0 M187 0 C197.38 1.83, 203.16 4.82, 202 15 M187 0 C197.63 1.72, 200.82 5.19, 202 15 M202 15 C200.16 24.69, 203.68 30.5, 202 45 M202 15 C202.89 23.64, 202.36 33.8, 202 45 M202 45 C202.29 53.21, 196.19 61.19, 187 60 M202 45 C204.16 55.56, 196.08 60.38, 187 60 M187 60 C143.6 58.09, 95.87 56.53, 15 60 M187 60 C128.64 58.25, 68.58 58.96, 15 60 M15 60 C5.49 61.79, -0.2 56.81, 0 45 M15 60 C6.59 62.23, 0.75 56.32, 0 45 M0 45 C1.75 33.54, -1.56 25.28, 0 15 M0 45 C0.54 38.33, 0.88 31.45, 0 15 M0 15 C0.81 5.76, 3.09 1.43, 15 0 M0 15 C0.95 4.72, 3.96 1.52, 15 0" stroke="#e67700" stroke-width="1" fill="none"></path></g><g transform="translate(74.75 629) rotate(0 46.86666488647461 12)"><text x="46.86666488647461" y="0" font-family="Cascadia, Segoe UI Emoji" font-size="20px" fill="#e67700" text-anchor="middle" style="white-space: pre;" direction="ltr" dominant-baseline="text-before-edge">assmbler</text></g><g stroke-linecap="round"><g transform="translate(124.75 675) rotate(0 0.5512384569839242 64.82532972487155)"><path d="M0.98 -0.02 C0.98 21.75, -0.65 109, -0.64 130.72 M0.04 -1.07 C0.49 20.34, 1.6 106.84, 1.74 128.98" stroke="#e67700" stroke-width="1" fill="none"></path></g><g transform="translate(124.75 675) rotate(0 0.5512384569839242 64.82532972487155)"><path d="M-8.83 99.83 C-4.96 109.54, -3.05 115.07, 0.83 128.22 M-9.2 101.59 C-3.81 111.54, 0.12 123.5, 2.6 129.6" stroke="#e67700" stroke-width="1" fill="none"></path></g><g transform="translate(124.75 675) rotate(0 0.5512384569839242 64.82532972487155)"><path d="M11.69 99.62 C10.48 109.55, 7.29 115.13, 0.83 128.22 M11.32 101.38 C8.74 111.38, 4.7 123.42, 2.6 129.6" stroke="#e67700" stroke-width="1" fill="none"></path></g></g><mask></mask><g transform="translate(156.75 737) rotate(0 64.44166564941406 12)"><text x="64.44166564941406" y="0" font-family="Cascadia, Segoe UI Emoji" font-size="20px" fill="#e67700" text-anchor="middle" style="white-space: pre;" direction="ltr" dominant-baseline="text-before-edge">object code</text></g><g stroke-linecap="round" transform="translate(21.25 814.375) rotate(0 101 30)"><path d="M15 0 M15 0 C67.19 -1.81, 123.23 0.64, 187 0 M15 0 C65.19 1.71, 113.71 1.05, 187 0 M187 0 C195.91 -0.82, 203.39 6.8, 202 15 M187 0 C196.67 1.43, 203.96 4.87, 202 15 M202 15 C202.95 24.97, 203.97 31.71, 202 45 M202 15 C201.2 27.42, 202.72 37.52, 202 45 M202 45 C202.33 53.66, 198.87 58.74, 187 60 M202 45 C200.73 55.93, 194.72 57.91, 187 60 M187 60 C151.21 62.71, 116.25 63.39, 15 60 M187 60 C122.78 61.74, 58.3 60.67, 15 60 M15 60 C5.32 60.86, -0.86 55.02, 0 45 M15 60 C3.69 61.32, 0.83 53.39, 0 45 M0 45 C0.25 34.17, -1.23 20.68, 0 15 M0 45 C-0.07 36.07, 0.08 25.21, 0 15 M0 15 C-0.72 5.71, 3.04 0.35, 15 0 M0 15 C-0.59 5.13, 4.28 1.76, 15 0" stroke="#e67700" stroke-width="1" fill="none"></path></g><g transform="translate(81 834.375) rotate(0 35.150001525878906 12)"><text x="35.150001525878906" y="0" font-family="Cascadia, Segoe UI Emoji" font-size="20px" fill="#e67700" text-anchor="middle" style="white-space: pre;" direction="ltr" dominant-baseline="text-before-edge">linker</text></g><g stroke-linecap="round" transform="translate(318.75 821.875) rotate(0 101 30)"><path d="M15 0 M15 0 C57.99 1.77, 98.67 -1.39, 187 0 M15 0 C74.61 -1.55, 133.48 -1.46, 187 0 M187 0 C198.05 0.65, 203.8 5.16, 202 15 M187 0 C199.13 1.69, 201.68 2.88, 202 15 M202 15 C203.55 25.44, 203.8 33.85, 202 45 M202 15 C201.22 22.15, 202.19 30.07, 202 45 M202 45 C200.52 55.41, 196.05 60.63, 187 60 M202 45 C201.72 54.09, 195.48 59.9, 187 60 M187 60 C131.13 57.48, 76.66 57.73, 15 60 M187 60 C145.42 58.24, 103.64 58.45, 15 60 M15 60 C6.76 61.82, -0.96 55.51, 0 45 M15 60 C4.3 60.78, 0.26 53.16, 0 45 M0 45 C-0.33 33.34, 1.8 24.13, 0 15 M0 45 C-0.18 34.95, 0.68 25.37, 0 15 M0 15 C-0.9 4.55, 6.28 -0.52, 15 0 M0 15 C-2.25 7.25, 2.77 1.68, 15 0" stroke="#e67700" stroke-width="1" fill="none"></path></g><g transform="translate(366.2416648864746 838.125) rotate(0 41.00833511352539 12)"><text x="41.00833511352539" y="0" font-family="Cascadia, Segoe UI Emoji" font-size="20px" fill="#e67700" text-anchor="middle" style="white-space: pre;" direction="ltr" dominant-baseline="text-before-edge">library</text></g><g stroke-linecap="round"><g transform="translate(313.5 850.6647565655348) rotate(0 -41.52671207007489 -1.2852064843078779)"><path d="M0.35 -0.21 C-13.31 -0.52, -68.7 -1.81, -82.47 -2.36 M-0.92 -1.36 C-14.69 -1.43, -69.73 -0.57, -83.41 -0.81" stroke="#e67700" stroke-width="1" fill="none"></path></g><g transform="translate(313.5 850.6647565655348) rotate(0 -41.52671207007489 -1.2852064843078779)"><path d="M-55.58 -11.06 C-62.44 -8.05, -71.59 -4.33, -81.9 -1.51 M-55.75 -10.27 C-62.55 -7.91, -68.04 -6.75, -82.44 -1.57" stroke="#e67700" stroke-width="1" fill="none"></path></g><g transform="translate(313.5 850.6647565655348) rotate(0 -41.52671207007489 -1.2852064843078779)"><path d="M-55.55 9.46 C-62.34 7.2, -71.5 5.66, -81.9 -1.51 M-55.72 10.25 C-62.62 7.68, -68.12 3.91, -82.44 -1.57" stroke="#e67700" stroke-width="1" fill="none"></path></g></g><mask></mask><g stroke-linecap="round"><g transform="translate(118.0628117162189 878.125) rotate(0 -0.07905565875768161 67.79038406317125)"><path d="M-0.63 0.5 C-0.82 22.85, -0.62 112.13, -0.93 134.55 M1.25 -0.28 C0.96 22.19, -0.6 113.08, -1.4 135.86" stroke="#e67700" stroke-width="1" fill="none"></path></g><g transform="translate(118.0628117162189 878.125) rotate(0 -0.07905565875768161 67.79038406317125)"><path d="M-10.12 108.92 C-8.54 115.43, -4.65 127.08, 0.56 134 M-10.82 108.15 C-7.7 117.1, -3.89 126.32, -1.35 136.4" stroke="#e67700" stroke-width="1" fill="none"></path></g><g transform="translate(118.0628117162189 878.125) rotate(0 -0.07905565875768161 67.79038406317125)"><path d="M10.39 109.43 C5.44 115.67, 2.81 127.16, 0.56 134 M9.69 108.66 C5.87 117.52, 2.73 126.56, -1.35 136.4" stroke="#e67700" stroke-width="1" fill="none"></path></g></g><mask></mask><g transform="translate(130.25 921.875) rotate(0 175.75 24)"><text x="175.75" y="0" font-family="Cascadia, Segoe UI Emoji" font-size="20px" fill="#e67700" text-anchor="middle" style="white-space: pre;" direction="ltr" dominant-baseline="text-before-edge">final machine code </text><text x="175.75" y="24" font-family="Cascadia, Segoe UI Emoji" font-size="20px" fill="#e67700" text-anchor="middle" style="white-space: pre;" direction="ltr" dominant-baseline="text-before-edge">linked with different library </text></g><g stroke-linecap="round" transform="translate(18.75 1026.875) rotate(0 101 30)"><path d="M15 0 M15 0 C54.37 -0.59, 91.07 0.34, 187 0 M15 0 C76.3 -0.67, 137.01 -0.47, 187 0 M187 0 C196.56 -1.42, 203.58 4.27, 202 15 M187 0 C196.12 -1.93, 203.09 3.88, 202 15 M202 15 C200.06 24.06, 201.88 35.43, 202 45 M202 15 C201.45 25.43, 202.5 34.08, 202 45 M202 45 C202.56 55.8, 198.02 60.68, 187 60 M202 45 C200.05 53.9, 195.38 58.99, 187 60 M187 60 C123.33 60.73, 59.67 58.2, 15 60 M187 60 C132.63 61.42, 77.02 60.82, 15 60 M15 60 C5.62 60.93, -0.4 56.27, 0 45 M15 60 C4.24 57.74, -0.38 55.58, 0 45 M0 45 C-1.38 32.97, -2.26 22.5, 0 15 M0 45 C0.04 36.58, 0.32 29.41, 0 15 M0 15 C-0.55 4.14, 5.44 1.98, 15 0 M0 15 C-0.56 5.44, 2.71 -0.23, 15 0" stroke="#e67700" stroke-width="1" fill="none"></path></g><g transform="translate(84.5999984741211 1044.875) rotate(0 35.150001525878906 12)"><text x="35.150001525878906" y="0" font-family="Cascadia, Segoe UI Emoji" font-size="20px" fill="#e67700" text-anchor="middle" style="white-space: pre;" direction="ltr" dominant-baseline="text-before-edge">loader</text></g><g stroke-linecap="round"><g transform="translate(113.5 1090.625) rotate(0 0.9491041220724696 66.51186897280161)"><path d="M-0.51 -0.36 C0 22.21, 2.02 112.33, 2.41 134.62 M1.42 -1.6 C1.82 20.71, 0.93 110.28, 1.41 132.96" stroke="#e67700" stroke-width="1" fill="none"></path></g><g transform="translate(113.5 1090.625) rotate(0 0.9491041220724696 66.51186897280161)"><path d="M-9.56 104.65 C-5.13 110.61, -4.66 119.28, 0.33 132.25 M-8.78 104.24 C-5.98 113.89, -3.8 121.76, 1.74 133.4" stroke="#e67700" stroke-width="1" fill="none"></path></g><g transform="translate(113.5 1090.625) rotate(0 0.9491041220724696 66.51186897280161)"><path d="M10.96 104.57 C10.33 110.47, 5.74 119.16, 0.33 132.25 M11.74 104.16 C8.34 113.81, 4.32 121.7, 1.74 133.4" stroke="#e67700" stroke-width="1" fill="none"></path></g></g><mask></mask><g transform="translate(128.90833282470703 1118.125) rotate(0 99.59166717529297 24)"><text x="99.59166717529297" y="0" font-family="Cascadia, Segoe UI Emoji" font-size="20px" fill="#e67700" text-anchor="middle" style="white-space: pre;" direction="ltr" dominant-baseline="text-before-edge">executable file</text><text x="99.59166717529297" y="24" font-family="Cascadia, Segoe UI Emoji" font-size="20px" fill="#e67700" text-anchor="middle" style="white-space: pre;" direction="ltr" dominant-baseline="text-before-edge"> load into memory</text></g><g stroke-linecap="round" transform="translate(10 1229.375) rotate(0 101 30)"><path d="M15 0 M15 0 C62.34 1.07, 112.67 3.12, 187 0 M15 0 C70.56 -0.65, 126.77 -0.56, 187 0 M187 0 C195.47 1.74, 202.34 4.51, 202 15 M187 0 C196.03 0.26, 200.39 3.63, 202 15 M202 15 C201.76 25.59, 201.43 33.51, 202 45 M202 15 C202.15 21.46, 201.92 26.38, 202 45 M202 45 C201.85 56.11, 195.25 59.1, 187 60 M202 45 C202.24 53.14, 199.19 58.91, 187 60 M187 60 C124.55 61.58, 62.09 60.28, 15 60 M187 60 C131.12 60.45, 74.62 60.9, 15 60 M15 60 C3.87 61.68, 0.69 53.24, 0 45 M15 60 C6.93 62.29, -1.86 55.39, 0 45 M0 45 C0.41 36, 0.39 24.05, 0 15 M0 45 C0.17 34.19, 0.52 22.14, 0 15 M0 15 C1.84 4.64, 3.13 1.14, 15 0 M0 15 C0.94 3.47, 3.53 1.22, 15 0" stroke="#e67700" stroke-width="1" fill="none"></path></g><g transform="translate(93.42499923706055 1247.375) rotate(0 17.575000762939453 12)"><text x="17.575000762939453" y="0" font-family="Cascadia, Segoe UI Emoji" font-size="20px" fill="#e67700" text-anchor="middle" style="white-space: pre;" direction="ltr" dominant-baseline="text-before-edge">RAM</text></g><g transform="translate(283.3499984741211 31.875) rotate(0 35.150001525878906 12)"><text x="35.150001525878906" y="0" font-family="Cascadia, Segoe UI Emoji" font-size="20px" fill="#2b8a3e" text-anchor="middle" style="white-space: pre;" direction="ltr" dominant-baseline="text-before-edge">main.c</text></g><g transform="translate(395.8499984741211 303.125) rotate(0 35.150001525878906 12)"><text x="35.150001525878906" y="0" font-family="Cascadia, Segoe UI Emoji" font-size="20px" fill="#2b8a3e" text-anchor="middle" style="white-space: pre;" direction="ltr" dominant-baseline="text-before-edge">main.i</text></g><g transform="translate(375.8499984741211 508.125) rotate(0 35.150001525878906 12)"><text x="35.150001525878906" y="0" font-family="Cascadia, Segoe UI Emoji" font-size="20px" fill="#2b8a3e" text-anchor="middle" style="white-space: pre;" direction="ltr" dominant-baseline="text-before-edge">main.s</text></g><g transform="translate(316.6333351135254 736.875) rotate(0 46.86666488647461 12)"><text x="46.86666488647461" y="0" font-family="Cascadia, Segoe UI Emoji" font-size="20px" fill="#2b8a3e" text-anchor="middle" style="white-space: pre;" direction="ltr" dominant-baseline="text-before-edge">main.obj</text></g><g transform="translate(509.1333351135254 945.625) rotate(0 46.86666488647461 12)"><text x="46.86666488647461" y="0" font-family="Cascadia, Segoe UI Emoji" font-size="20px" fill="#2b8a3e" text-anchor="middle" style="white-space: pre;" direction="ltr" dominant-baseline="text-before-edge">main.exe</text></g><g transform="translate(543.591667175293 845.625) rotate(0 76.15833282470703 12)"><text x="76.15833282470703" y="0" font-family="Cascadia, Segoe UI Emoji" font-size="20px" fill="#e67700" text-anchor="middle" style="white-space: pre;" direction="ltr" dominant-baseline="text-before-edge">library files</text></g></svg>